{
  "accessors": [
    {
      "bufferView": 3,
      "componentType": 5126,
      "count": 90,
      "max": [
        0.3505041003227234,
        1.6091439723968506,
        0.35050299763679504
      ],
      "min": [
        -0.3505041003227234,
        0.7723534107208252,
        -0.35050511360168457
      ],
      "type": "VEC3"
    },
    {
      "bufferView": 3,
      "byteOffset": 1080,
      "componentType": 5126,
      "count": 90,
      "max": [
        0.999340295791626,
        0.6585454344749451,
        0.9999998807907104
      ],
      "min": [
        -0.9999998807907104,
        -0.8914401531219482,
        -0.999340295791626
      ],
      "type": "VEC3"
    },
    {
      "bufferView": 2,
      "componentType": 5126,
      "count": 90,
      "max": [
        1.0,
        1.0
      ],
      "min": [
        -0.40668100118637085,
        0.0
      ],
      "type": "VEC2"
    },
    {
      "bufferView": 2,
      "byteOffset": 720,
      "componentType": 5126,
      "count": 90,
      "max": [
        0.0,
        0.0
      ],
      "min": [
        0.0,
        0.0
      ],
      "type": "VEC2"
    },
    {
      "bufferView": 1,
      "componentType": 5125,
      "count": 168,
      "type": "SCALAR"
    },
    {
      "bufferView": 3,
      "byteOffset": 2160,
      "componentType": 5126,
      "count": 699,
      "max": [
        0.3736318051815033,
        2.013087034225464,
        0.37363091111183167
      ],
      "min": [
        -0.3736318051815033,
        0.7371364831924438,
        -0.37363290786743164
      ],
      "type": "VEC3"
    },
    {
      "bufferView": 3,
      "byteOffset": 10548,
      "componentType": 5126,
      "count": 699,
      "max": [
        0.9999998807907104,
        1.0,
        0.9999998807907104
      ],
      "min": [
        -0.9999998807907104,
        -1.0,
        -0.9999998807907104
      ],
      "type": "VEC3"
    },
    {
      "bufferView": 2,
      "byteOffset": 1440,
      "componentType": 5126,
      "count": 699,
      "max": [
        0.9882739782333374,
        0.9838029742240906
      ],
      "min": [
        0.011320940218865871,
        0.01134197972714901
      ],
      "type": "VEC2"
    },
    {
      "bufferView": 2,
      "byteOffset": 7032,
      "componentType": 5126,
      "count": 699,
      "max": [
        0.9882739782333374,
        0.9838029742240906
      ],
      "min": [
        0.011320940218865871,
        0.01134197972714901
      ],
      "type": "VEC2"
    },
    {
      "bufferView": 1,
      "byteOffset": 672,
      "componentType": 5125,
      "count": 1068,
      "type": "SCALAR"
    },
    {
      "bufferView": 5,
      "componentType": 5126,
      "count": 9,
      "max": [
        100.0,
        0.0,
        0.0,
        0.0,
        0.0,
        100.0,
        6.805118027841672e-05,
        0.0,
        0.0,
        0.0,
        100.0,
        0.0,
        0.0,
        1.3751119375228882,
        0.0,
        1.0
      ],
      "min": [
        1.0,
        0.0,
        0.0,
        0.0,
        0.0,
        -1.0,
        0.0,
        0.0,
        0.0,
        -6.805118027841672e-05,
        -1.0,
        0.0,
        0.0,
        0.0,
        -9.45912761380896e-05,
        1.0
      ],
      "type": "MAT4"
    },
    {
      "bufferView": 0,
      "componentType": 5123,
      "count": 90,
      "type": "VEC4"
    },
    {
      "bufferView": 4,
      "componentType": 5126,
      "count": 90,
      "max": [
        1.0,
        0.0,
        0.0,
        0.0
      ],
      "min": [
        1.0,
        0.0,
        0.0,
        0.0
      ],
      "type": "VEC4"
    },
    {
      "bufferView": 0,
      "byteOffset": 720,
      "componentType": 5123,
      "count": 699,
      "type": "VEC4"
    },
    {
      "bufferView": 4,
      "byteOffset": 1440,
      "componentType": 5126,
      "count": 699,
      "max": [
        1.0,
        0.0,
        0.0,
        0.0
      ],
      "min": [
        1.0,
        0.0,
        0.0,
        0.0
      ],
      "type": "VEC4"
    },
    {
      "bufferView": 6,
      "componentType": 5126,
      "count": 86,
      "max": [
        1.7916666269302368
      ],
      "min": [
        0.0
      ],
      "type": "SCALAR"
    },
    {
      "bufferView": 7,
      "componentType": 5126,
      "count": 86,
      "max": [
        1.8246744393213277e-11,
        2.996966941282153e-08,
        0.504000186920166
      ],
      "min": [
        -2.3419483366482474e-11,
        2.9933289624750614e-08,
        0.5039999485015869
      ],
      "type": "VEC3"
    },
    {
      "bufferView": 6,
      "byteOffset": 344,
      "componentType": 5126,
      "count": 69,
      "max": [
        1.7916666269302368
      ],
      "min": [
        0.0
      ],
      "type": "SCALAR"
    },
    {
      "bufferView": 7,
      "byteOffset": 1032,
      "componentType": 5126,
      "count": 69,
      "max": [
        1.0000004768371582,
        1.0,
        1.0000004768371582
      ],
      "min": [
        0.9999998807907104,
        1.0,
        0.9999998807907104
      ],
      "type": "VEC3"
    },
    {
      "bufferView": 6,
      "byteOffset": 620,
      "componentType": 5126,
      "count": 86,
      "max": [
        1.7916666269302368
      ],
      "min": [
        0.0
      ],
      "type": "SCALAR"
    },
    {
      "bufferView": 8,
      "componentType": 5126,
      "count": 86,
      "max": [
        0.4860221743583679,
        0.49647390842437744,
        0.706860363483429,
        0.7071309089660645
      ],
      "min": [
        -0.7070826888084412,
        -0.7068122029304504,
        -0.4965077042579651,
        -0.4860551357269287
      ],
      "type": "VEC4"
    },
    {
      "bufferView": 6,
      "byteOffset": 964,
      "componentType": 5126,
      "count": 85,
      "max": [
        1.7916666269302368
      ],
      "min": [
        0.0
      ],
      "type": "SCALAR"
    },
    {
      "bufferView": 7,
      "byteOffset": 1860,
      "componentType": 5126,
      "count": 85,
      "max": [
        0.0,
        5.293955920339377e-23,
        1.2380000352859497
      ],
      "min": [
        0.0,
        0.0,
        0.8650001287460327
      ],
      "type": "VEC3"
    }
  ],
  "animations": [
    {
      "channels": [
        {
          "sampler": 0,
          "target": {
            "node": 14,
            "path": "translation"
          }
        },
        {
          "sampler": 1,
          "target": {
            "node": 14,
            "path": "scale"
          }
        },
        {
          "sampler": 2,
          "target": {
            "node": 14,
            "path": "rotation"
          }
        },
        {
          "sampler": 3,
          "target": {
            "node": 13,
            "path": "translation"
          }
        }
      ],
      "name": "Idle",
      "samplers": [
        {
          "input": 15,
          "interpolation": "LINEAR",
          "output": 16
        },
        {
          "input": 17,
          "interpolation": "LINEAR",
          "output": 18
        },
        {
          "input": 19,
          "interpolation": "LINEAR",
          "output": 20
        },
        {
          "input": 21,
          "interpolation": "LINEAR",
          "output": 22
        }
      ]
    }
  ],
  "asset": {
    "extras": {
      "author": "jameslucino117 (https://sketchfab.com/jameslucino117)",
      "license": "CC-BY-4.0 (http://creativecommons.org/licenses/by/4.0/)",
      "source": "https://sketchfab.com/3d-models/metroid-primeinventoryweaponsmissile-launcher-3e57c9d85dd34667a3bafeaa9830717f",
      "title": "Metroid Prime>Inventory>Weapons>Missile Launcher"
    },
    "generator": "Sketchfab-15.44.0",
    "version": "2.0"
  },
  "bufferViews": [
    {
      "buffer": 0,
      "byteLength": 6312,
      "byteStride": 8,
      "name": "shortBufferViews",
      "target": 34962
    },
    {
      "buffer": 0,
      "byteLength": 4944,
      "byteOffset": 6312,
      "name": "floatBufferViews",
      "target": 34963
    },
    {
      "buffer": 0,
      "byteLength": 12624,
      "byteOffset": 11256,
      "byteStride": 8,
      "name": "floatBufferViews",
      "target": 34962
    },
    {
      "buffer": 0,
      "byteLength": 18936,
      "byteOffset": 23880,
      "byteStride": 12,
      "name": "floatBufferViews",
      "target": 34962
    },
    {
      "buffer": 0,
      "byteLength": 12624,
      "byteOffset": 42816,
      "byteStride": 16,
      "name": "floatBufferViews",
      "target": 34962
    },
    {
      "buffer": 0,
      "byteLength": 576,
      "byteOffset": 55440,
      "name": "floatBufferViews"
    },
    {
      "buffer": 0,
      "byteLength": 1304,
      "byteOffset": 56016,
      "name": "floatBufferViews"
    },
    {
      "buffer": 0,
      "byteLength": 2880,
      "byteOffset": 57320,
      "byteStride": 12,
      "name": "floatBufferViews"
    },
    {
      "buffer": 0,
      "byteLength": 1376,
      "byteOffset": 60200,
      "byteStride": 16,
      "name": "floatBufferViews"
    }
  ],
  "buffers": [
    {
      "byteLength": 61576,
      "uri": "scene.bin"
    }
  ],
  "extensionsRequired": [
    "KHR_materials_pbrSpecularGlossiness"
  ],
  "extensionsUsed": [
    "KHR_materials_pbrSpecularGlossiness",
    "KHR_materials_emissive_strength"
  ],
  "images": [
    {
      "uri": "textures/MAT_0_0_diffuse.png"
    },
    {
      "uri": "textures/MAT_0_1_diffuse.png"
    },
    {
      "uri": "textures/MAT_0_1_emissive.png"
    }
  ],
  "materials": [
    {
      "doubleSided": true,
      "emissiveFactor": [
        1.0,
        1.0,
        1.0
      ],
      "emissiveTexture": {
        "index": 0
      },
      "extensions": {
        "KHR_materials_emissive_strength": {
          "emissiveStrength": 2.0
        },
        "KHR_materials_pbrSpecularGlossiness": {
          "diffuseFactor": [
            1.0,
            1.0,
            1.0,
            1.0
          ],
          "diffuseTexture": {
            "index": 0
          },
          "glossinessFactor": 0.0,
          "specularFactor": [
            0.0,
            0.0,
            0.0
          ]
        }
      },
      "name": "MAT_0_0"
    },
    {
      "doubleSided": true,
      "emissiveFactor": [
        1.0,
        1.0,
        1.0
      ],
      "emissiveTexture": {
        "index": 2
      },
      "extensions": {
        "KHR_materials_emissive_strength": {
          "emissiveStrength": 2.0
        },
        "KHR_materials_pbrSpecularGlossiness": {
          "diffuseFactor": [
            1.0,
            1.0,
            1.0,
            1.0
          ],
          "diffuseTexture": {
            "index": 1
          },
          "glossinessFactor": 0.0,
          "specularFactor": [
            0.0,
            0.0,
            0.0
          ]
        }
      },
      "name": "MAT_0_1"
    }
  ],
  "meshes": [
    {
      "name": "CMDL_2D7E6590_MAT_0_0_0",
      "primitives": [
        {
          "attributes": {
            "JOINTS_0": 11,
            "NORMAL": 1,
            "POSITION": 0,
            "TEXCOORD_0": 2,
            "TEXCOORD_1": 3,
            "WEIGHTS_0": 12
          },
          "indices": 4,
          "material": 0,
          "mode": 4
        }
      ]
    },
    {
      "name": "CMDL_2D7E6590_MAT_0_1_0",
      "primitives": [
        {
          "attributes": {
            "JOINTS_0": 13,
            "NORMAL": 6,
            "POSITION": 5,
            "TEXCOORD_0": 7,
            "TEXCOORD_1": 8,
            "WEIGHTS_0": 14
          },
          "indices": 9,
          "material": 1,
          "mode": 4
        }
      ]
    }
  ],
  "nodes": [
    {
      "children": [
        1
      ],
      "matrix": [
        2.1947782039642334,
        0.0,
        0.0,
        0.0,
        0.0,
        4.87338659197308e-16,
        -2.1947782039642334,
        0.0,
        0.0,
        2.1947782039642334,
        4.87338659197308e-16,
        0.0,
        0.0,
        0.0,
        0.0,
        1.0
      ],
      "name": "Sketchfab_model"
    },
    {
      "children": [
        2
      ],
      "matrix": [
        0.009999999776482582,
        0.0,
        0.0,
        0.0,
        0.0,
        0.0,
        0.009999999776482582,
        0.0,
        0.0,
        -0.009999999776482582,
        0.0,
        0.0,
        0.0,
        0.0,
        0.0,
        1.0
      ],
      "name": "Missile Launcher.fbx"
    },
    {
      "children": [
        3
      ],
      "name": "Object_2"
    },
    {
      "children": [
        4,
        5,
        6
      ],
      "name": "RootNode"
    },
    {
      "name": "CINF_F8333189",
      "rotation": [
        -0.7071068286895752,
        0.0,
        0.0,
        0.7071067094802856
      ],
      "scale": [
        100.0,
        100.0,
        100.0
      ]
    },
    {
      "name": "CMDL_2D7E6590",
      "rotation": [
        -0.7071068286895752,
        0.0,
        0.0,
        0.7071067094802856
      ],
      "scale": [
        100.0,
        100.0,
        100.0
      ]
    },
    {
      "children": [
        7
      ],
      "name": "CINF_F8333189.001",
      "rotation": [
        -0.7071068286895752,
        0.0,
        0.0,
        0.7071067094802856
      ],
      "scale": [
        100.0,
        100.0,
        100.0
      ]
    },
    {
      "children": [
        8,
        10,
        11,
        9
      ],
      "name": "Object_7"
    },
    {
      "children": [
        12,
        16
      ],
      "name": "_rootJoint"
    },
    {
      "matrix": [
        100.0,
        0.0,
        0.0,
        0.0,
        0.0,
        6.123233995736766e-15,
        -100.0,
        0.0,
        0.0,
        100.0,
        6.123233995736766e-15,
        0.0,
        0.0,
        0.0,
        0.0,
        1.0
      ],
      "name": "Object_9"
    },
    {
      "mesh": 0,
      "name": "Object_10",
      "skin": 0
    },
    {
      "mesh": 1,
      "name": "Object_11",
      "skin": 0
    },
    {
      "children": [
        13
      ],
      "name": "root_00",
      "rotation": [
        -1.3234889800848443e-23,
        -0.0,
        0.0,
        1.0
      ]
    },
    {
      "children": [
        14
      ],
      "name": "Skeleton_Root_01",
      "rotation": [
        -1.3234889800848443e-23,
        -0.0,
        0.0,
        1.0
      ],
      "translation": [
        0.0,
        0.0,
        0.8702501058578491
      ]
    },
    {
      "children": [
        15
      ],
      "name": "Missile_Launcher_SDK_02",
      "rotation": [
        -0.6764985918998718,
        -0.20570755004882813,
        0.20572157204151154,
        0.6765446662902832
      ],
      "translation": [
        -6.522784916362934e-12,
        2.996239345520735e-08,
        0.5040000677108765
      ]
    },
    {
      "name": "Missile_Launcher_SDK_end_06",
      "rotation": [
        -3.3881317890172014e-21,
        1.1479437019748901e-41,
        -3.3881317890172014e-21,
        1.0
      ],
      "translation": [
        6.617444900424221e-23,
        0.014889955520629883,
        -1.3552527156068805e-20
      ]
    },
    {
      "children": [
        17
      ],
      "name": "root.001_03",
      "rotation": [
        -1.3234889800848443e-23,
        -0.0,
        0.0,
        1.0
      ]
    },
    {
      "children": [
        18
      ],
      "name": "Skeleton_Root.001_04",
      "rotation": [
        -1.3234889800848443e-23,
        -0.0,
        0.0,
        1.0
      ],
      "translation": [
        0.0,
        0.0,
        1.3900020122528076
      ]
    },
    {
      "children": [
        19
      ],
      "name": "Missile_Launcher_SDK.001_05",
      "rotation": [
        -0.7070826888084412,
        -0.0,
        0.0,
        0.7071308493614197
      ],
      "translation": [
        0.0,
        1.0132789611816406e-06,
        -0.014890074729919434
      ]
    },
    {
      "name": "Missile_Launcher_SDK.001_end_07",
      "translation": [
        0.0,
        0.014889955520629883,
        0.0
      ]
    }
  ],
  "samplers": [
    {
      "magFilter": 9729,
      "minFilter": 9987,
      "wrapS": 10497,
      "wrapT": 10497
    }
  ],
  "scene": 0,
  "scenes": [
    {
      "name": "Sketchfab_Scene",
      "nodes": [
        0
      ]
    }
  ],
  "skins": [
    {
      "inverseBindMatrices": 10,
      "joints": [
        8,
        12,
        13,
        14,
        15,
        16,
        17,
        18,
        19
      ],
      "skeleton": 8
    }
  ],
  "textures": [
    {
      "sampler": 0,
      "source": 0
    },
    {
      "sampler": 0,
      "source": 1
    },
    {
      "sampler": 0,
      "source": 2
    }
  ]
}
